REM DIRINDEX 1\4,1\2\5,1\2\6,1\3\7,1\3\8
REM DIRNAME folder01,folder02,folder03,folder04,folder05,folder06,folder07,folder08
TITLE ""
FILE "081_Day41_Check2_Phrases.mp3" MP3
  TRACK 01 AUDIO
    TITLE "0:"
    INDEX 01 00:00:00
  TRACK 02 AUDIO
    TITLE "4:cjc124_2643"
    INDEX 01 00:00:33
  TRACK 03 AUDIO
    TITLE "0:"
    INDEX 01 00:01:56
  TRACK 04 AUDIO
    TITLE "5:cjc124_2644"
    INDEX 01 00:02:22
  TRACK 05 AUDIO
    TITLE "0:"
    INDEX 01 00:04:27
  TRACK 06 AUDIO
    TITLE "6:cjc124_2645"
    INDEX 01 00:04:50
  TRACK 07 AUDIO
    TITLE "0:"
    INDEX 01 00:06:33
  TRACK 08 AUDIO
    TITLE "5:cjc124_2646"
    INDEX 01 00:06:73
  TRACK 09 AUDIO
    TITLE "0:"
    INDEX 01 00:08:44
  TRACK 10 AUDIO
    TITLE "6:cjc124_2647"
    INDEX 01 00:08:68
  TRACK 11 AUDIO
    TITLE "0:"
    INDEX 01 00:10:29
  TRACK 12 AUDIO
    TITLE "5:cjc124_2648"
    INDEX 01 00:10:68
  TRACK 13 AUDIO
    TITLE "0:"
    INDEX 01 00:12:73
  TRACK 14 AUDIO
    TITLE "6:cjc124_2649"
    INDEX 01 00:13:20
  TRACK 15 AUDIO
    TITLE "0:"
    INDEX 01 00:15:48
  TRACK 16 AUDIO
    TITLE "5:cjc124_2650"
    INDEX 01 00:16:10
  TRACK 17 AUDIO
    TITLE "0:"
    INDEX 01 00:18:33
  TRACK 18 AUDIO
    TITLE "6:cjc124_2651"
    INDEX 01 00:18:56
  TRACK 19 AUDIO
    TITLE "0:"
    INDEX 01 00:20:43
  TRACK 20 AUDIO
    TITLE "5:cjc124_2652"
    INDEX 01 00:21:06
  TRACK 21 AUDIO
    TITLE "0:"
    INDEX 01 00:22:34
  TRACK 22 AUDIO
    TITLE "6:cjc124_2653"
    INDEX 01 00:22:60
  TRACK 23 AUDIO
    TITLE "0:"
    INDEX 01 00:24:45
  TRACK 24 AUDIO
    TITLE "5:cjc124_2654"
    INDEX 01 00:25:07
  TRACK 25 AUDIO
    TITLE "0:"
    INDEX 01 00:27:12
  TRACK 26 AUDIO
    TITLE "6:cjc124_2655"
    INDEX 01 00:27:32
  TRACK 27 AUDIO
    TITLE "0:"
    INDEX 01 00:29:05
  TRACK 28 AUDIO
    TITLE "5:cjc124_2656"
    INDEX 01 00:29:40
  TRACK 29 AUDIO
    TITLE "0:"
    INDEX 01 00:32:15
  TRACK 30 AUDIO
    TITLE "6:cjc124_2657"
    INDEX 01 00:32:35
  TRACK 31 AUDIO
    TITLE "0:"
    INDEX 01 00:35:02
  TRACK 32 AUDIO
    TITLE "5:cjc124_2658"
    INDEX 01 00:35:41
  TRACK 33 AUDIO
    TITLE "0:"
    INDEX 01 00:37:18
  TRACK 34 AUDIO
    TITLE "6:cjc124_2659"
    INDEX 01 00:37:40
  TRACK 35 AUDIO
    TITLE "0:"
    INDEX 01 00:38:59
  TRACK 36 AUDIO
    TITLE "5:cjc124_2660"
    INDEX 01 00:39:23
  TRACK 37 AUDIO
    TITLE "0:"
    INDEX 01 00:41:30
  TRACK 38 AUDIO
    TITLE "6:cjc124_2661"
    INDEX 01 00:41:53
  TRACK 39 AUDIO
    TITLE "0:"
    INDEX 01 00:43:25
  TRACK 40 AUDIO
    TITLE "5:cjc124_2662"
    INDEX 01 00:43:64
  TRACK 41 AUDIO
    TITLE "0:"
    INDEX 01 00:45:35
  TRACK 42 AUDIO
    TITLE "6:cjc124_2663"
    INDEX 01 00:45:57
  TRACK 43 AUDIO
    TITLE "0:"
    INDEX 01 00:47:19
  TRACK 44 AUDIO
    TITLE "5:cjc124_2664"
    INDEX 01 00:47:58
  TRACK 45 AUDIO
    TITLE "0:"
    INDEX 01 00:49:27
  TRACK 46 AUDIO
    TITLE "6:cjc124_2665"
    INDEX 01 00:49:49
  TRACK 47 AUDIO
    TITLE "0:"
    INDEX 01 00:51:22
  TRACK 48 AUDIO
    TITLE "5:cjc124_2666"
    INDEX 01 00:51:60
  TRACK 49 AUDIO
    TITLE "0:"
    INDEX 01 00:53:57
  TRACK 50 AUDIO
    TITLE "6:cjc124_2667"
    INDEX 01 00:54:01
  TRACK 51 AUDIO
    TITLE "0:"
    INDEX 01 00:55:40
  TRACK 52 AUDIO
    TITLE "5:cjc124_2668"
    INDEX 01 00:56:06
  TRACK 53 AUDIO
    TITLE "0:"
    INDEX 01 00:57:62
  TRACK 54 AUDIO
    TITLE "6:cjc124_2669"
    INDEX 01 00:58:18
  TRACK 55 AUDIO
    TITLE "0:"
    INDEX 01 01:00:43
  TRACK 56 AUDIO
    TITLE "5:cjc124_2670"
    INDEX 01 01:01:05
  TRACK 57 AUDIO
    TITLE "0:"
    INDEX 01 01:02:69
  TRACK 58 AUDIO
    TITLE "6:cjc124_2671"
    INDEX 01 01:03:14
  TRACK 59 AUDIO
    TITLE "0:"
    INDEX 01 01:04:68
  TRACK 60 AUDIO
    TITLE "5:cjc124_2672"
    INDEX 01 01:05:30
  TRACK 61 AUDIO
    TITLE "0:"
    INDEX 01 01:07:08
  TRACK 62 AUDIO
    TITLE "6:cjc124_2673"
    INDEX 01 01:07:27
  TRACK 63 AUDIO
    TITLE "0:"
    INDEX 01 01:08:66
  TRACK 64 AUDIO
    TITLE "5:cjc124_2674"
    INDEX 01 01:09:32
  TRACK 65 AUDIO
    TITLE "0:"
    INDEX 01 01:10:69
  TRACK 66 AUDIO
    TITLE "6:cjc124_2675"
    INDEX 01 01:11:17
  TRACK 67 AUDIO
    TITLE "0:"
    INDEX 01 01:12:46
